<svg xmlns="http://www.w3.org/2000/svg" xmlns:osb="http://www.openswatchbook.org/uri/2009/osb" xmlns:svg="http://www.w3.org/2000/svg" id="svg7384" width="16" height="16" version="1.1" viewBox="0 0 16 16"><metadata id="metadata90"/><title id="title9167">Gnome Symbolic Icon Theme</title><defs id="defs7386"><linearGradient id="linearGradient7212" osb:paint="solid"><stop style="stop-color:#000;stop-opacity:1" id="stop7214" offset="0"/></linearGradient></defs><g style="display:inline" id="g6387" transform="translate(-120.0004,-318)"><path style="fill:#2e3436;fill-opacity:1;stroke:none" id="path4231" d="m 124.06055,319 2,2 H 132 c 0.554,0 1,0.446 1,1 v 5.9375 l 1.57812,1.57812 C 134.8399,329.06996 135,328.55629 135,328 v -6 c 0,-1.662 -1.338,-3 -3,-3 z m -1.65625,0.4668 C 121.56198,319.99688 121,320.92715 121,322 v 1 h 2 v -1 c 0,-0.53536 0.4193,-0.9616 0.94727,-0.99023 z M 129,329 v 2 h 3 c 0.55629,0 1.06996,-0.1601 1.51562,-0.42188 L 131.9375,329 Z m 0,3.02539 V 334 h 3 c 1,0 1,-1 1,-1 0,0 -0.0522,-0.84521 -4,-0.97461 z"/><path style="opacity:.5;vector-effect:none;fill:#2e3436;fill-opacity:1;fill-rule:nonzero;stroke:none;stroke-width:20;stroke-linecap:butt;stroke-linejoin:miter;stroke-miterlimit:4;stroke-dasharray:none;stroke-dashoffset:0;stroke-opacity:1;marker:none;marker-start:none;marker-mid:none;marker-end:none;paint-order:normal" id="path4233" d="M 122.28125,324 C 121.57123,324 121,324.57123 121,325.28125 v 7.4375 c 0,0.71002 0.57123,1.28125 1.28125,1.28125 h 4.4375 C 127.42877,334 128,333.42877 128,332.71875 v -7.4375 L 126.71875,324 H 125 124 Z m 0.12891,1 H 123 c 0,0.554 0.446,1 1,1 h 1 c 0.554,0 1,-0.446 1,-1 h 0.58984 c 0.22771,0 0.41016,0.18245 0.41016,0.41016 v 6.16321 c 0,0.22771 -0.18245,0.41016 -0.41016,0.41016 h -4.17968 c -0.22771,0 -0.41016,-0.18245 -0.41016,-0.41016 v -6.16321 C 122,325.18245 122.18245,325 122.41016,325 Z"/><path id="path3849-0" d="m 121.499,318.501 -1.061,1.061 14,14 1.062,-1.062 z" style="fill:#2e3436;fill-opacity:1;stroke:none"/></g></svg>