<svg xmlns="http://www.w3.org/2000/svg" xmlns:osb="http://www.openswatchbook.org/uri/2009/osb" xmlns:svg="http://www.w3.org/2000/svg" id="svg7384" width="16" height="16" version="1.1" viewBox="0 0 16 16"><metadata id="metadata90"/><title id="title9167">Gnome Symbolic Icon Theme</title><defs id="defs7386"><linearGradient id="linearGradient7212" osb:paint="solid"><stop style="stop-color:#000;stop-opacity:1" id="stop7214" offset="0"/></linearGradient></defs><g style="display:inline" id="g6387" transform="translate(-140.0002,-318)"><path id="rect4274" d="M 144.19727,318 C 142.99567,318 142,319.00125 142,320.20117 v 11.59766 c 0,1.19992 0.99567,2.20117 2.19727,2.20117 h 7.60742 C 153.00628,334 154,332.99875 154,331.79883 V 320.20117 C 154,319.00125 153.00628,318 151.80469,318 Z m 0,2 H 145 v 0.25 c 0,0.4155 0.3345,0.75 0.75,0.75 h 4.5 c 0.4155,0 0.75,-0.3345 0.75,-0.75 V 320 h 0.80469 c 0.12379,0 0.19531,0.0703 0.19531,0.20117 v 9.54297 c 0,0.1309 -0.0715,0.20117 -0.19531,0.20117 h -7.60742 c -0.1238,0 -0.19727,-0.0703 -0.19727,-0.20117 v -9.54297 C 144,320.07027 144.07347,320 144.19727,320 Z M 148,330.83594 a 1,1 0 0 1 1,1 1,1 0 0 1 -1,1 1,1 0 0 1 -1,-1 1,1 0 0 1 1,-1 z" style="color:#bebebe;font-style:normal;font-variant:normal;font-weight:400;font-stretch:normal;font-size:medium;line-height:normal;font-family:sans-serif;font-variant-ligatures:normal;font-variant-position:normal;font-variant-caps:normal;font-variant-numeric:normal;font-variant-alternates:normal;font-feature-settings:normal;text-indent:0;text-align:start;text-decoration:none;text-decoration-line:none;text-decoration-style:solid;text-decoration-color:#000;letter-spacing:normal;word-spacing:normal;text-transform:none;writing-mode:lr-tb;direction:ltr;text-orientation:mixed;dominant-baseline:auto;baseline-shift:baseline;text-anchor:start;white-space:normal;shape-padding:0;clip-rule:nonzero;display:inline;overflow:visible;visibility:visible;opacity:1;isolation:auto;mix-blend-mode:normal;color-interpolation:sRGB;color-interpolation-filters:linearRGB;solid-color:#000;solid-opacity:1;vector-effect:none;fill:#2e3436;fill-opacity:1;fill-rule:nonzero;stroke:none;stroke-width:1.99999988;stroke-linecap:butt;stroke-linejoin:miter;stroke-miterlimit:4;stroke-dasharray:none;stroke-dashoffset:0;stroke-opacity:1;marker:none;color-rendering:auto;image-rendering:auto;shape-rendering:auto;text-rendering:auto;enable-background:accumulate"/></g></svg>